<svg width="209" height="50" viewBox="0 0 209 50" fill="none" xmlns="http://www.w3.org/2000/svg">
<path fill-rule="evenodd" clip-rule="evenodd" d="M4.6875 3.125C4.2731 3.125 3.87567 3.28962 3.58265 3.58265C3.28962 3.87567 3.125 4.2731 3.125 4.6875V14.0625C3.125 14.4769 2.96038 14.8743 2.66735 15.1674C2.37433 15.4604 1.9769 15.625 1.5625 15.625C1.1481 15.625 0.750671 15.4604 0.457646 15.1674C0.16462 14.8743 0 14.4769 0 14.0625V4.6875C0 3.4443 0.49386 2.25201 1.37294 1.37294C2.25201 0.49386 3.4443 0 4.6875 0L14.0625 0C14.4769 0 14.8743 0.16462 15.1674 0.457646C15.4604 0.750671 15.625 1.1481 15.625 1.5625C15.625 1.9769 15.4604 2.37433 15.1674 2.66735C14.8743 2.96038 14.4769 3.125 14.0625 3.125H4.6875ZM34.375 1.5625C34.375 1.1481 34.5396 0.750671 34.8326 0.457646C35.1257 0.16462 35.5231 0 35.9375 0L45.3125 0C46.5557 0 47.748 0.49386 48.6271 1.37294C49.5061 2.25201 50 3.4443 50 4.6875V14.0625C50 14.4769 49.8354 14.8743 49.5424 15.1674C49.2493 15.4604 48.8519 15.625 48.4375 15.625C48.0231 15.625 47.6257 15.4604 47.3326 15.1674C47.0396 14.8743 46.875 14.4769 46.875 14.0625V4.6875C46.875 4.2731 46.7104 3.87567 46.4174 3.58265C46.1243 3.28962 45.7269 3.125 45.3125 3.125H35.9375C35.5231 3.125 35.1257 2.96038 34.8326 2.66735C34.5396 2.37433 34.375 1.9769 34.375 1.5625V1.5625ZM1.5625 34.375C1.9769 34.375 2.37433 34.5396 2.66735 34.8326C2.96038 35.1257 3.125 35.5231 3.125 35.9375V45.3125C3.125 45.7269 3.28962 46.1243 3.58265 46.4174C3.87567 46.7104 4.2731 46.875 4.6875 46.875H14.0625C14.4769 46.875 14.8743 47.0396 15.1674 47.3326C15.4604 47.6257 15.625 48.0231 15.625 48.4375C15.625 48.8519 15.4604 49.2493 15.1674 49.5424C14.8743 49.8354 14.4769 50 14.0625 50H4.6875C3.4443 50 2.25201 49.5061 1.37294 48.6271C0.49386 47.748 0 46.5557 0 45.3125L0 35.9375C0 35.5231 0.16462 35.1257 0.457646 34.8326C0.750671 34.5396 1.1481 34.375 1.5625 34.375V34.375ZM48.4375 34.375C48.8519 34.375 49.2493 34.5396 49.5424 34.8326C49.8354 35.1257 50 35.5231 50 35.9375V45.3125C50 46.5557 49.5061 47.748 48.6271 48.6271C47.748 49.5061 46.5557 50 45.3125 50H35.9375C35.5231 50 35.1257 49.8354 34.8326 49.5424C34.5396 49.2493 34.375 48.8519 34.375 48.4375C34.375 48.0231 34.5396 47.6257 34.8326 47.3326C35.1257 47.0396 35.5231 46.875 35.9375 46.875H45.3125C45.7269 46.875 46.1243 46.7104 46.4174 46.4174C46.7104 46.1243 46.875 45.7269 46.875 45.3125V35.9375C46.875 35.5231 47.0396 35.1257 47.3326 34.8326C47.6257 34.5396 48.0231 34.375 48.4375 34.375Z" fill="#202020"/>
<path fill-rule="evenodd" clip-rule="evenodd" d="M9.375 43.75C9.375 43.75 6.25 43.75 6.25 40.625C6.25 37.5 9.375 28.125 25 28.125C40.625 28.125 43.75 37.5 43.75 40.625C43.75 43.75 40.625 43.75 40.625 43.75H9.375ZM25 25C27.4864 25 29.871 24.0123 31.6291 22.2541C33.3873 20.496 34.375 18.1114 34.375 15.625C34.375 13.1386 33.3873 10.754 31.6291 8.99587C29.871 7.23772 27.4864 6.25 25 6.25C22.5136 6.25 20.129 7.23772 18.3709 8.99587C16.6127 10.754 15.625 13.1386 15.625 15.625C15.625 18.1114 16.6127 20.496 18.3709 22.2541C20.129 24.0123 22.5136 25 25 25V25Z" fill="#E0245E"/>
<path d="M76.17 35.3C73.49 35.3 71.45 34.58 70.05 33.14C68.67 31.7 67.93 29.71 67.83 27.17C67.81 26.63 67.8 25.75 67.8 24.53C67.8 23.29 67.81 22.39 67.83 21.83C67.93 19.31 68.68 17.33 70.08 15.89C71.48 14.43 73.51 13.7 76.17 13.7C77.95 13.7 79.46 14.02 80.7 14.66C81.94 15.28 82.88 16.1 83.52 17.12C84.16 18.14 84.51 19.23 84.57 20.39V20.45C84.57 20.61 84.5 20.75 84.36 20.87C84.24 20.97 84.1 21.02 83.94 21.02H82.29C81.89 21.02 81.64 20.79 81.54 20.33C81.2 18.83 80.59 17.78 79.71 17.18C78.83 16.56 77.65 16.25 76.17 16.25C72.73 16.25 70.95 18.16 70.83 21.98C70.81 22.52 70.8 23.35 70.8 24.47C70.8 25.59 70.81 26.44 70.83 27.02C70.95 30.84 72.73 32.75 76.17 32.75C77.65 32.75 78.83 32.45 79.71 31.85C80.61 31.23 81.22 30.17 81.54 28.67C81.6 28.41 81.69 28.23 81.81 28.13C81.93 28.03 82.09 27.98 82.29 27.98H83.94C84.12 27.98 84.27 28.04 84.39 28.16C84.53 28.26 84.59 28.4 84.57 28.58C84.51 29.76 84.16 30.86 83.52 31.88C82.88 32.9 81.94 33.73 80.7 34.37C79.46 34.99 77.95 35.3 76.17 35.3ZM94.5905 35.3C92.3905 35.3 90.6805 34.68 89.4605 33.44C88.2605 32.2 87.6205 30.55 87.5405 28.49L87.5105 27.2L87.5405 25.91C87.6205 23.87 88.2705 22.23 89.4905 20.99C90.7105 19.73 92.4105 19.1 94.5905 19.1C96.7705 19.1 98.4705 19.73 99.6905 20.99C100.91 22.23 101.56 23.87 101.64 25.91C101.66 26.13 101.67 26.56 101.67 27.2C101.67 27.84 101.66 28.27 101.64 28.49C101.56 30.55 100.91 32.2 99.6905 33.44C98.4905 34.68 96.7905 35.3 94.5905 35.3ZM94.5905 32.99C95.8505 32.99 96.8405 32.59 97.5605 31.79C98.3005 30.99 98.7005 29.84 98.7605 28.34C98.7805 28.14 98.7905 27.76 98.7905 27.2C98.7905 26.64 98.7805 26.26 98.7605 26.06C98.7005 24.56 98.3005 23.41 97.5605 22.61C96.8405 21.81 95.8505 21.41 94.5905 21.41C93.3305 21.41 92.3305 21.81 91.5905 22.61C90.8505 23.41 90.4605 24.56 90.4205 26.06L90.3905 27.2L90.4205 28.34C90.4605 29.84 90.8505 30.99 91.5905 31.79C92.3305 32.59 93.3305 32.99 94.5905 32.99ZM106.117 35C105.917 35 105.747 34.94 105.607 34.82C105.487 34.68 105.427 34.51 105.427 34.31V20.09C105.427 19.89 105.487 19.73 105.607 19.61C105.747 19.47 105.917 19.4 106.117 19.4H107.527C107.727 19.4 107.887 19.47 108.007 19.61C108.147 19.73 108.217 19.89 108.217 20.09V21.41C108.797 20.67 109.477 20.1 110.257 19.7C111.057 19.3 112.047 19.1 113.227 19.1C115.147 19.1 116.637 19.72 117.697 20.96C118.777 22.18 119.317 23.81 119.317 25.85V34.31C119.317 34.51 119.247 34.68 119.107 34.82C118.987 34.94 118.827 35 118.627 35H117.127C116.927 35 116.757 34.94 116.617 34.82C116.497 34.68 116.437 34.51 116.437 34.31V26C116.437 24.58 116.087 23.48 115.387 22.7C114.707 21.92 113.717 21.53 112.417 21.53C111.157 21.53 110.157 21.93 109.417 22.73C108.677 23.51 108.307 24.6 108.307 26V34.31C108.307 34.51 108.237 34.68 108.097 34.82C107.977 34.94 107.817 35 107.617 35H106.117ZM129.505 35C126.345 35 124.765 33.24 124.765 29.72V21.8H122.425C122.225 21.8 122.055 21.74 121.915 21.62C121.795 21.48 121.735 21.31 121.735 21.11V20.09C121.735 19.89 121.795 19.73 121.915 19.61C122.055 19.47 122.225 19.4 122.425 19.4H124.765V14.39C124.765 14.19 124.825 14.03 124.945 13.91C125.085 13.77 125.255 13.7 125.455 13.7H126.865C127.065 13.7 127.225 13.77 127.345 13.91C127.485 14.03 127.555 14.19 127.555 14.39V19.4H131.275C131.475 19.4 131.635 19.47 131.755 19.61C131.895 19.73 131.965 19.89 131.965 20.09V21.11C131.965 21.31 131.895 21.48 131.755 21.62C131.635 21.74 131.475 21.8 131.275 21.8H127.555V29.51C127.555 30.51 127.725 31.27 128.065 31.79C128.405 32.29 128.965 32.54 129.745 32.54H131.575C131.775 32.54 131.935 32.61 132.055 32.75C132.195 32.87 132.265 33.03 132.265 33.23V34.31C132.265 34.51 132.195 34.68 132.055 34.82C131.935 34.94 131.775 35 131.575 35H129.505ZM139.484 35.3C138.504 35.3 137.594 35.1 136.754 34.7C135.914 34.3 135.244 33.76 134.744 33.08C134.264 32.38 134.024 31.61 134.024 30.77C134.024 29.45 134.564 28.37 135.644 27.53C136.744 26.67 138.224 26.11 140.084 25.85L144.554 25.22V24.35C144.554 22.31 143.384 21.29 141.044 21.29C140.164 21.29 139.444 21.48 138.884 21.86C138.324 22.22 137.904 22.65 137.624 23.15C137.564 23.33 137.484 23.46 137.384 23.54C137.304 23.62 137.184 23.66 137.024 23.66H135.734C135.554 23.66 135.394 23.6 135.254 23.48C135.134 23.34 135.074 23.18 135.074 23C135.094 22.52 135.314 21.98 135.734 21.38C136.174 20.76 136.844 20.23 137.744 19.79C138.644 19.33 139.754 19.1 141.074 19.1C143.314 19.1 144.924 19.63 145.904 20.69C146.884 21.73 147.374 23.03 147.374 24.59V34.31C147.374 34.51 147.304 34.68 147.164 34.82C147.044 34.94 146.884 35 146.684 35H145.304C145.104 35 144.934 34.94 144.794 34.82C144.674 34.68 144.614 34.51 144.614 34.31V33.02C144.174 33.66 143.534 34.2 142.694 34.64C141.854 35.08 140.784 35.3 139.484 35.3ZM140.114 33.05C141.414 33.05 142.474 32.63 143.294 31.79C144.134 30.93 144.554 29.7 144.554 28.1V27.26L141.074 27.77C139.654 27.97 138.584 28.31 137.864 28.79C137.144 29.25 136.784 29.84 136.784 30.56C136.784 31.36 137.114 31.98 137.774 32.42C138.434 32.84 139.214 33.05 140.114 33.05ZM157.987 35.3C155.847 35.3 154.167 34.7 152.947 33.5C151.747 32.28 151.107 30.58 151.027 28.4L150.997 27.2L151.027 26C151.107 23.82 151.747 22.13 152.947 20.93C154.167 19.71 155.847 19.1 157.987 19.1C159.427 19.1 160.647 19.36 161.647 19.88C162.647 20.4 163.387 21.04 163.867 21.8C164.367 22.56 164.637 23.32 164.677 24.08C164.697 24.28 164.637 24.44 164.497 24.56C164.357 24.68 164.187 24.74 163.987 24.74H162.547C162.347 24.74 162.197 24.7 162.097 24.62C161.997 24.54 161.897 24.38 161.797 24.14C161.457 23.18 160.977 22.5 160.357 22.1C159.737 21.68 158.957 21.47 158.017 21.47C156.777 21.47 155.787 21.86 155.047 22.64C154.327 23.4 153.937 24.57 153.877 26.15L153.847 27.23L153.877 28.25C153.937 29.85 154.327 31.03 155.047 31.79C155.767 32.55 156.757 32.93 158.017 32.93C158.957 32.93 159.737 32.73 160.357 32.33C160.977 31.91 161.457 31.22 161.797 30.26C161.897 30.02 161.997 29.86 162.097 29.78C162.197 29.68 162.347 29.63 162.547 29.63H163.987C164.187 29.63 164.357 29.7 164.497 29.84C164.637 29.96 164.697 30.12 164.677 30.32C164.637 31.06 164.367 31.82 163.867 32.6C163.387 33.36 162.647 34 161.647 34.52C160.667 35.04 159.447 35.3 157.987 35.3ZM174.33 35C171.17 35 169.59 33.24 169.59 29.72V21.8H167.25C167.05 21.8 166.88 21.74 166.74 21.62C166.62 21.48 166.56 21.31 166.56 21.11V20.09C166.56 19.89 166.62 19.73 166.74 19.61C166.88 19.47 167.05 19.4 167.25 19.4H169.59V14.39C169.59 14.19 169.65 14.03 169.77 13.91C169.91 13.77 170.08 13.7 170.28 13.7H171.69C171.89 13.7 172.05 13.77 172.17 13.91C172.31 14.03 172.38 14.19 172.38 14.39V19.4H176.1C176.3 19.4 176.46 19.47 176.58 19.61C176.72 19.73 176.79 19.89 176.79 20.09V21.11C176.79 21.31 176.72 21.48 176.58 21.62C176.46 21.74 176.3 21.8 176.1 21.8H172.38V29.51C172.38 30.51 172.55 31.27 172.89 31.79C173.23 32.29 173.79 32.54 174.57 32.54H176.4C176.6 32.54 176.76 32.61 176.88 32.75C177.02 32.87 177.09 33.03 177.09 33.23V34.31C177.09 34.51 177.02 34.68 176.88 34.82C176.76 34.94 176.6 35 176.4 35H174.33Z" fill="#202020"/>
<path d="M181.038 35C180.838 35 180.668 34.94 180.528 34.82C180.408 34.68 180.348 34.51 180.348 34.31V14.72C180.348 14.5 180.408 14.33 180.528 14.21C180.668 14.07 180.838 14 181.038 14H182.538C182.858 14 183.118 14.16 183.318 14.48L189.648 26.6L196.038 14.48C196.078 14.36 196.158 14.25 196.278 14.15C196.418 14.05 196.588 14 196.788 14H198.258C198.478 14 198.648 14.07 198.768 14.21C198.908 14.33 198.978 14.5 198.978 14.72V34.31C198.978 34.51 198.908 34.68 198.768 34.82C198.628 34.94 198.458 35 198.258 35H196.788C196.588 35 196.418 34.94 196.278 34.82C196.158 34.68 196.098 34.51 196.098 34.31V19.55L191.088 29.33C190.888 29.75 190.568 29.96 190.128 29.96H189.198C188.758 29.96 188.438 29.75 188.238 29.33L183.198 19.55V34.31C183.198 34.51 183.128 34.68 182.988 34.82C182.868 34.94 182.708 35 182.508 35H181.038ZM204.227 16.49C204.027 16.49 203.857 16.43 203.717 16.31C203.597 16.17 203.537 16 203.537 15.8V14.18C203.537 13.98 203.597 13.81 203.717 13.67C203.857 13.53 204.027 13.46 204.227 13.46H206.117C206.317 13.46 206.487 13.53 206.627 13.67C206.767 13.81 206.837 13.98 206.837 14.18V15.8C206.837 16 206.767 16.17 206.627 16.31C206.487 16.43 206.317 16.49 206.117 16.49H204.227ZM204.467 35C204.267 35 204.097 34.94 203.957 34.82C203.837 34.68 203.777 34.51 203.777 34.31V20.09C203.777 19.89 203.837 19.73 203.957 19.61C204.097 19.47 204.267 19.4 204.467 19.4H205.907C206.107 19.4 206.267 19.47 206.387 19.61C206.527 19.73 206.597 19.89 206.597 20.09V34.31C206.597 34.51 206.527 34.68 206.387 34.82C206.267 34.94 206.107 35 205.907 35H204.467Z" fill="#E0245E"/>
</svg>
